<?xml version="1.0" encoding="UTF-8" standalone="no"?>
<!-- Created with Inkscape (http://www.inkscape.org/) -->

<svg
   xmlns:dc="http://purl.org/dc/elements/1.1/"
   xmlns:cc="http://creativecommons.org/ns#"
   xmlns:rdf="http://www.w3.org/1999/02/22-rdf-syntax-ns#"
   xmlns:svg="http://www.w3.org/2000/svg"
   xmlns="http://www.w3.org/2000/svg"
   xmlns:sodipodi="http://sodipodi.sourceforge.net/DTD/sodipodi-0.dtd"
   xmlns:inkscape="http://www.inkscape.org/namespaces/inkscape"
   width="117.42329mm"
   height="45.854103mm"
   viewBox="0 0 117.42329 45.854103"
   version="1.1"
   id="svg41"
   inkscape:version="0.92.4 (5da689c313, 2019-01-14)"
   sodipodi:docname="jeju_ci_w.svg">
  <defs
     id="defs35" />
  <sodipodi:namedview
     id="base"
     pagecolor="#ffffff"
     bordercolor="#666666"
     borderopacity="1.0"
     inkscape:pageopacity="0.0"
     inkscape:pageshadow="2"
     inkscape:zoom="2.8"
     inkscape:cx="132.08272"
     inkscape:cy="78.495484"
     inkscape:document-units="mm"
     inkscape:current-layer="g3768"
     showgrid="false"
     inkscape:pagecheckerboard="true"
     fit-margin-top="0"
     fit-margin-left="0"
     fit-margin-right="0"
     fit-margin-bottom="0"
     inkscape:window-width="2560"
     inkscape:window-height="1377"
     inkscape:window-x="-8"
     inkscape:window-y="-8"
     inkscape:window-maximized="1" />
  <metadata
     id="metadata38">
    <rdf:RDF>
      <cc:Work
         rdf:about="">
        <dc:format>image/svg+xml</dc:format>
        <dc:type
           rdf:resource="http://purl.org/dc/dcmitype/StillImage" />
        <dc:title></dc:title>
      </cc:Work>
    </rdf:RDF>
  </metadata>
  <g
     inkscape:label="Layer 1"
     inkscape:groupmode="layer"
     id="layer1"
     transform="translate(-34.770471,-49.590267)">
    <g
       id="g3768"
       transform="translate(2.6726957,-40.624969)">
      <path
         style="fill:#ee8306;stroke-width:0.08466666"
         d="m 102.66743,103.12534 c -1.18824,-0.44482 -2.29066,-2.03554 -3.455729,-4.986358 C 98.8481,97.218071 98.066029,94.802473 97.927969,94.17389 l -0.06256,-0.284811 0.326676,0.05664 c 0.486536,0.08436 1.4454,0.579498 2.014735,1.040364 0.45992,0.372297 1.08369,1.053451 1.54059,1.682312 0.0994,0.13675 0.20594,0.224601 0.23685,0.195224 0.0309,-0.02938 0.16546,-0.467527 0.29897,-0.973667 0.50106,-1.899403 1.249,-3.537882 1.93578,-4.240638 0.47014,-0.481081 1.42982,-1.180121 1.7948,-1.307352 0.38163,-0.133036 1.25588,0.307965 1.59891,0.80654 0.79066,1.149178 0.66365,3.342662 -0.35608,6.149529 -0.89321,2.458621 -2.31285,4.933059 -3.23278,5.634719 -0.34636,0.26418 -0.94003,0.34847 -1.35644,0.19259 z"
         id="path3778"
         inkscape:connector-curvature="0" />
      <path
         style="fill:#0072bc;stroke-width:0.08466666"
         d="m 38.617097,134.97185 c -1.771901,-0.21737 -3.575618,-0.83907 -4.741333,-1.63422 -0.519413,-0.35429 -1.235576,-1.03891 -1.45041,-1.38652 -0.166508,-0.26942 -0.168583,-0.296 -0.03465,-0.444 0.332333,-0.36722 1.817997,-0.79502 4.533058,-1.30531 1.896322,-0.3564 3.06417,-0.50618 5.672667,-0.72753 7.263649,-0.61636 13.658481,-0.84939 23.283333,-0.84846 8.648592,8.5e-4 15.853744,0.2212 19.642667,0.60075 2.015844,0.20193 6.025213,0.90215 6.207106,1.08404 0.05161,0.0516 0.03265,0.20198 -0.0522,0.41403 -0.121259,0.30305 -0.121186,0.4125 7.62e-4,1.21754 0.126903,0.83746 0.125938,0.89692 -0.0181,1.11675 -0.215155,0.32837 -0.682746,0.54033 -1.406839,0.63773 -0.343441,0.0462 -0.986386,0.16292 -1.42877,0.2594 -1.180999,0.25756 -2.784284,0.30493 -4.626026,0.13667 -1.541156,-0.1408 -2.260689,-0.11053 -2.8688,0.12067 -0.347937,0.13229 -1.302467,0.1335 -6.602174,0.008 -3.836741,-0.0906 -5.240798,-0.0956 -6.053666,-0.0215 -0.582084,0.053 -3.382434,0.13385 -6.223,0.17955 -2.840567,0.0457 -6.345767,0.1228 -7.789334,0.17134 -1.443566,0.0485 -3.920066,0.0877 -5.503333,0.0871 -2.204404,-8.5e-4 -3.334786,0.0392 -4.826,0.17077 -2.277761,0.20104 -4.814314,0.2733 -5.715,0.16281 z"
         id="path3776"
         inkscape:connector-curvature="0" />
      <path
         style="fill:none;stroke-width:0.08466666"
         d="m 97.768252,135.86318 c -0.133381,-0.0696 -0.279899,-0.12648 -0.325596,-0.12648 -0.0457,0 -0.196694,-0.0809 -0.335548,-0.17977 -0.19269,-0.13721 -0.241081,-0.22512 -0.204389,-0.37131 0.02931,-0.1168 -0.0012,-0.23241 -0.07811,-0.29627 -0.0694,-0.0576 -0.126181,-0.15815 -0.126181,-0.22345 0,-0.0653 -0.08572,-0.15222 -0.1905,-0.19317 -0.224215,-0.0876 -0.5715,-0.40134 -0.5715,-0.51627 0,-0.0822 0.516756,-0.43218 0.783166,-0.53046 0.08149,-0.0301 0.148167,-0.10709 0.148167,-0.17119 0,-0.16049 0.251051,-0.37229 0.521167,-0.43969 0.123659,-0.0309 0.243797,-0.12861 0.266974,-0.21724 0.02318,-0.0886 0.134864,-0.1964 0.248193,-0.23948 0.279174,-0.10615 0.727441,-0.59465 0.953985,-1.03963 0.160034,-0.31433 0.219149,-0.36209 0.420594,-0.33975 0.220958,0.0245 0.231998,0.01 0.192671,-0.254 -0.03604,-0.24188 5.92e-4,-0.31635 0.26895,-0.54714 0.170867,-0.14694 0.423125,-0.43214 0.560575,-0.63378 0.13744,-0.20164 0.35677,-0.45805 0.48739,-0.5698 0.14281,-0.12217 0.2181,-0.25373 0.18884,-0.32999 -0.0282,-0.0735 0.0944,-0.31631 0.29166,-0.57758 0.18719,-0.24792 0.34034,-0.48861 0.34034,-0.53486 0,-0.0463 0.0632,-0.11943 0.14033,-0.16262 0.13046,-0.073 0.13021,-0.10382 -0.004,-0.43812 -0.12471,-0.31169 -0.12787,-0.37792 -0.0237,-0.49718 0.0661,-0.0757 0.14729,-0.32808 0.18041,-0.56092 0.0331,-0.23283 0.10885,-0.48048 0.16829,-0.55033 0.0594,-0.0699 0.13161,-0.30863 0.16039,-0.53063 0.0288,-0.22199 0.11761,-0.52679 0.19743,-0.67733 0.0932,-0.17579 0.14853,-0.48574 0.15466,-0.86637 0.005,-0.32597 0.0549,-0.67589 0.11031,-0.77761 0.12599,-0.23125 0.1387,-2.19461 0.0147,-2.27125 -0.0473,-0.0293 -0.0584,-0.0979 -0.0246,-0.15257 0.0786,-0.12718 0.0345,-1.25655 -0.0535,-1.3697 -0.0366,-0.047 -0.0916,-0.19032 -0.12214,-0.31837 -0.0306,-0.12806 -0.0966,-0.23284 -0.14668,-0.23284 -0.0501,0 -0.34463,0.16299 -0.65455,0.36221 -0.81154,0.52163 -0.8162,0.52425 -1.791169,1.00276 -1.701423,0.83506 -1.893667,0.92103 -2.059478,0.92103 -0.233037,0 -1.170128,0.34126 -1.34497,0.48979 -0.107529,0.0914 -0.227342,0.10502 -0.465666,0.0531 -0.336274,-0.0732 -0.346205,-0.0726 -0.955886,0.0567 -0.20955,0.0444 -0.6096,0.11551 -0.889,0.15795 -1.626084,0.24699 -2.019813,0.27128 -3.573806,0.22044 -1.388839,-0.0454 -1.68467,-0.079 -2.024799,-0.2294 -0.295018,-0.1305 -0.500109,-0.16415 -0.790773,-0.12972 -0.39158,0.0464 -1.009512,-0.1441 -1.137075,-0.3505 -0.02989,-0.0484 -0.258205,-0.14719 -0.507369,-0.21963 -0.249164,-0.0724 -0.500774,-0.18923 -0.559135,-0.25955 -0.05836,-0.0703 -0.16812,-0.12907 -0.24391,-0.13055 -0.07579,-0.001 -0.211757,-0.0586 -0.302149,-0.127 -0.09039,-0.0684 -0.248369,-0.1243 -0.351062,-0.1243 -0.107299,0 -0.297114,-0.12574 -0.446278,-0.29563 -0.142762,-0.1626 -0.381093,-0.36954 -0.529625,-0.45986 -0.310803,-0.18901 -1.138071,-1.10929 -1.214966,-1.35156 -0.02851,-0.0898 -0.107532,-0.18469 -0.17561,-0.21081 -0.06808,-0.0261 -0.123776,-0.1237 -0.123776,-0.21683 0,-0.0931 -0.150544,-0.3896 -0.334544,-0.65882 -0.378309,-0.55353 -0.473263,-0.90548 -0.556447,-2.06251 -0.0628,-0.87346 0.139822,-2.45279 0.346736,-2.70265 0.05784,-0.0698 0.147849,-0.28732 0.200013,-0.48326 0.05216,-0.19594 0.131908,-0.37917 0.177209,-0.40716 0.0453,-0.028 0.08237,-0.13859 0.08237,-0.24576 0,-0.10717 0.09012,-0.32765 0.200263,-0.48996 0.110144,-0.16231 0.214919,-0.33408 0.232833,-0.38171 0.06068,-0.16135 1.678663,-1.63282 1.795397,-1.63282 0.06376,0 0.184889,-0.0762 0.269174,-0.16933 0.08428,-0.0931 0.226044,-0.16933 0.315021,-0.16933 0.198563,0 0.45555,-0.13119 0.770975,-0.39358 0.131631,-0.1095 0.322131,-0.20076 0.423333,-0.20281 0.101203,-0.002 0.336404,-0.0629 0.522671,-0.13528 0.272411,-0.10582 0.720064,-0.13081 2.288199,-0.12771 l 1.949533,0.004 0.590467,0.27315 c 1.058348,0.4896 1.930873,1.29513 2.022326,1.86705 0.03148,0.19686 0.09662,0.40538 0.144763,0.46339 0.129995,0.15663 0.322347,1.03338 0.322347,1.46927 0,0.56447 -0.206873,1.3286 -0.457674,1.6905 -0.121586,0.17545 -0.260155,0.46057 -0.307931,0.6336 -0.09221,0.33397 -0.409579,0.77851 -1.000379,1.40123 -0.198806,0.20955 -0.477667,0.54185 -0.61969,0.73844 -0.163762,0.22668 -0.368529,0.39384 -0.559762,0.45695 -0.578794,0.19102 -1.112574,0.50368 -1.11065,0.65057 0.001,0.079 0.06771,0.22574 0.148167,0.326 0.216968,0.27037 1.317981,0.79137 1.672375,0.79137 0.166458,0 0.405534,0.0516 0.53128,0.11471 0.125746,0.0631 0.474024,0.16169 0.773951,0.21911 0.654666,0.12533 2.93378,0.13066 3.257412,0.008 0.126475,-0.0481 0.35334,-0.0874 0.504142,-0.0874 0.36896,0 1.98713,-0.55144 2.206483,-0.75193 0.09642,-0.0881 0.403907,-0.26654 0.683307,-0.39649 0.2794,-0.12994 0.698092,-0.42157 0.930432,-0.64806 0.23233,-0.22649 0.51808,-0.43533 0.635,-0.46408 0.31197,-0.0767 0.7629,-0.44516 0.7629,-0.62332 0,-0.0849 -0.0733,-0.28045 -0.16278,-0.43445 -0.0895,-0.154 -0.20665,-0.52766 -0.26027,-0.83034 -0.0536,-0.30268 -0.16859,-0.70273 -0.25549,-0.889 -0.0869,-0.18627 -0.22007,-0.71967 -0.29595,-1.18533 -0.0759,-0.46567 -0.21486,-1.10443 -0.30886,-1.41948 -0.24569,-0.82352 -0.13403,-1.91122 0.24908,-2.4263 0.12672,-0.17037 0.24862,-0.22388 0.55596,-0.24403 0.315,-0.0207 0.39364,-0.0566 0.39364,-0.18013 0,-0.23825 0.1637,-0.31885 0.77689,-0.38251 0.4295,-0.0446 0.61247,-0.029 0.762,0.0649 0.10823,0.068 0.34918,0.1503 0.53545,0.18298 0.18626,0.0327 0.39072,0.10244 0.45433,0.15503 0.23181,0.19163 0.73446,0.30965 1.112,0.2611 0.3363,-0.0433 0.41934,-0.0185 0.7078,0.21103 0.55638,0.44272 2.17087,2.81483 2.17087,3.1896 0,0.063 0.0932,0.25202 0.20716,0.41992 0.11394,0.1679 0.26585,0.52201 0.33757,0.78692 0.0717,0.26491 0.20444,0.74835 0.29492,1.07432 0.11768,0.42394 0.15129,0.73799 0.11804,1.10312 -0.0371,0.40692 -0.0187,0.53352 0.0906,0.6242 0.0876,0.0727 0.13706,0.24571 0.13706,0.47913 0,0.20096 0.058,0.61559 0.12895,0.9214 0.11584,0.49949 0.11569,0.58167 -0.002,0.80834 -0.10527,0.20359 -0.11294,0.32207 -0.0397,0.6134 0.19286,0.76706 -0.0902,3.09906 -0.40397,3.32852 -0.13832,0.10113 -0.13827,0.12326 0.001,0.41529 0.15394,0.32281 0.12812,0.65957 -0.0685,0.89293 -0.19927,0.23655 -0.54761,1.04641 -0.54761,1.27315 0,0.12399 -0.10983,0.37707 -0.24407,0.56238 -0.15909,0.21962 -0.26553,0.49671 -0.30572,0.79586 -0.0339,0.25242 -0.11431,0.58676 -0.17865,0.74299 -0.0643,0.15622 -0.0949,0.37221 -0.0678,0.47999 0.0374,0.1492 -0.004,0.23089 -0.17428,0.34237 -0.25014,0.1639 -0.4688,0.5331 -0.4688,0.79157 0,0.0939 -0.16193,0.35933 -0.35983,0.58988 -0.42953,0.50035 -0.84777,1.07283 -0.99688,1.36448 -0.0595,0.11642 -0.32153,0.46373 -0.58225,0.77181 -0.26072,0.30808 -0.62644,0.76277 -0.81271,1.01043 -0.58173,0.77345 -1.48686,1.59498 -2.48014,2.25108 -0.52588,0.34737 -1.1554,0.81201 -1.39892,1.03255 -0.24352,0.22053 -0.57526,0.45345 -0.737185,0.51759 -0.16193,0.0641 -0.378834,0.19206 -0.482009,0.28427 -0.201221,0.17984 -0.973355,0.4753 -1.251742,0.47898 -0.09313,0.001 -0.278464,-0.0547 -0.411845,-0.12423 z m 0.848238,-0.0841 c 0.167175,-0.0699 0.371425,-0.127 0.453889,-0.127 0.08246,0 0.172425,-0.0586 0.199913,-0.13024 0.02749,-0.0716 0.236319,-0.21657 0.464069,-0.32209 0.22775,-0.10552 0.596399,-0.35232 0.819209,-0.54845 0.22282,-0.19614 0.82769,-0.63882 1.34416,-0.98376 1.46743,-0.98005 1.68897,-1.19202 3.07774,-2.94472 0.17415,-0.21978 0.4214,-0.52192 0.54946,-0.67142 0.12806,-0.1495 0.23283,-0.31013 0.23283,-0.35695 0,-0.0468 0.14485,-0.25904 0.32189,-0.47159 0.17704,-0.21254 0.40326,-0.52045 0.50272,-0.68422 0.0995,-0.16378 0.27846,-0.3895 0.39778,-0.50159 0.13433,-0.1262 0.21695,-0.29565 0.21695,-0.44495 0,-0.16153 0.10781,-0.35931 0.32657,-0.59908 0.17962,-0.19686 0.30985,-0.40539 0.2894,-0.46339 -0.0204,-0.058 0.0205,-0.2866 0.0909,-0.508 0.0705,-0.2214 0.15464,-0.574 0.18708,-0.78355 0.0324,-0.20955 0.1684,-0.54026 0.30215,-0.73492 0.13376,-0.19466 0.2432,-0.44709 0.2432,-0.56096 0,-0.26173 0.36144,-1.08735 0.5414,-1.23671 0.15236,-0.12644 0.19143,-0.80978 0.0513,-0.89641 -0.12922,-0.0799 -0.10082,-0.44821 0.0407,-0.52739 0.29519,-0.1652 0.55261,-2.34183 0.37622,-3.1812 -0.0777,-0.36966 -0.0792,-0.51531 -0.006,-0.58843 0.1298,-0.1298 0.12247,-0.4928 -0.0241,-1.19323 -0.0667,-0.31874 -0.10017,-0.63447 -0.0744,-0.70162 0.0258,-0.0672 -0.0173,-0.19302 -0.0958,-0.27969 -0.11027,-0.12185 -0.13892,-0.29874 -0.12632,-0.78001 0.0195,-0.74483 -0.39385,-2.38598 -0.72117,-2.86335 -0.11278,-0.16449 -0.23133,-0.41338 -0.26344,-0.55308 -0.11768,-0.51208 -1.47973,-2.47859 -2.06182,-2.97683 -0.32463,-0.27787 -0.3811,-0.29677 -0.7304,-0.24439 -0.38328,0.0575 -0.888,-0.0579 -1.13944,-0.26047 -0.0698,-0.0563 -0.27939,-0.12886 -0.46566,-0.16131 -0.18627,-0.0324 -0.42247,-0.11149 -0.52489,-0.17565 -0.13427,-0.0841 -0.33164,-0.10145 -0.70743,-0.0622 -0.47603,0.0498 -0.5285,0.0754 -0.60523,0.29548 -0.0894,0.25646 -0.11015,0.26508 -0.58618,0.24349 -0.26524,-0.012 -0.33154,0.0257 -0.48683,0.27696 -0.0989,0.15998 -0.17977,0.38891 -0.17977,0.50872 0,0.11982 -0.0381,0.24139 -0.0847,0.27017 -0.13902,0.0859 -0.0961,0.91766 0.077,1.49392 0.0889,0.29594 0.22433,0.91679 0.3009,1.37965 0.0766,0.46287 0.21166,1.01532 0.30022,1.22767 0.0885,0.21235 0.20098,0.61316 0.24984,0.89068 0.0489,0.27751 0.18391,0.68639 0.3001,0.9086 0.11619,0.22222 0.21126,0.42138 0.21126,0.44259 0,0.11845 -0.66294,0.64054 -0.81413,0.64116 -0.10022,4.2e-4 -0.38295,0.19655 -0.64178,0.44523 -0.25446,0.24448 -0.66915,0.53799 -0.921538,0.65226 -0.252386,0.11426 -0.610747,0.31538 -0.796358,0.44692 -0.370589,0.26267 -1.763501,0.74232 -2.155651,0.74232 -0.136112,0 -0.351113,0.0394 -0.477781,0.0876 -0.324608,0.12342 -2.760972,0.1201 -3.421385,-0.005 -0.302683,-0.0572 -0.634718,-0.15638 -0.737854,-0.22043 -0.103137,-0.0641 -0.331737,-0.11675 -0.508,-0.1171 -0.707134,-0.001 -2.065319,-0.92632 -1.91923,-1.30702 0.03648,-0.0951 0.868132,-0.51592 1.317117,-0.66654 0.07793,-0.0262 0.292248,-0.24987 0.476251,-0.49718 0.184003,-0.2473 0.53507,-0.65738 0.780149,-0.9113 0.514817,-0.53338 0.760135,-0.90478 0.760584,-1.15149 1.69e-4,-0.0956 0.115037,-0.32981 0.255251,-0.52047 0.234806,-0.31929 0.343124,-0.65542 0.477265,-1.48104 0.06352,-0.39093 -0.107651,-1.32466 -0.318723,-1.73867 -0.08771,-0.17204 -0.159476,-0.39452 -0.159476,-0.49439 0,-0.21083 -0.550865,-0.96794 -0.704254,-0.96794 -0.05711,0 -0.250979,-0.1213 -0.430825,-0.26954 -0.517782,-0.4268 -1.256515,-0.73912 -1.765582,-0.74644 -2.454923,-0.0353 -3.366688,-0.006 -3.737761,0.11993 -0.217156,0.0737 -0.471932,0.13405 -0.566169,0.13405 -0.09424,0 -0.31198,0.11135 -0.483874,0.24745 -0.171895,0.1361 -0.470543,0.28891 -0.663663,0.33958 -0.19312,0.0507 -0.372899,0.14887 -0.399509,0.21822 -0.02661,0.0693 -0.111109,0.12608 -0.187776,0.12608 -0.07667,0 -0.461394,0.3048 -0.85495,0.67733 -0.393556,0.37254 -0.748557,0.67734 -0.788891,0.67734 -0.04033,0 -0.100166,0.0857 -0.132959,0.1905 -0.03279,0.10477 -0.149916,0.2985 -0.260272,0.4305 -0.110356,0.132 -0.175655,0.28044 -0.145107,0.32987 0.03055,0.0494 -0.02635,0.25575 -0.126433,0.45849 -0.428493,0.86801 -0.51848,1.13044 -0.647915,1.88948 -0.244967,1.43654 -0.02298,3.04336 0.510363,3.69424 0.161834,0.19749 0.294243,0.43249 0.294243,0.52221 0,0.0897 0.07523,0.23121 0.167172,0.31442 0.09195,0.0832 0.192596,0.23139 0.22367,0.32929 0.03107,0.0979 0.308272,0.41793 0.615995,0.71117 0.307723,0.29323 0.717867,0.68435 0.911429,0.86915 0.193563,0.18481 0.418487,0.33601 0.49983,0.33601 0.172457,0 1.021754,0.38856 1.089741,0.49857 0.02546,0.0412 0.174587,0.099 0.331391,0.12838 0.156804,0.0294 0.468096,0.1747 0.69176,0.32285 0.362532,0.24013 0.464744,0.26722 0.9419,0.2496 0.385472,-0.0142 0.637694,0.0269 0.901398,0.14704 0.489823,0.22314 3.119826,0.33277 4.209048,0.17545 0.395816,-0.0572 0.948266,-0.13527 1.227666,-0.17356 0.2794,-0.0383 0.71755,-0.1117 0.973667,-0.16313 0.468148,-0.094 0.663262,-0.10855 1.063438,-0.0792 0.119225,0.009 0.3383,-0.0418 0.486833,-0.11233 0.610873,-0.29 0.922072,-0.40096 1.124479,-0.40096 0.225063,0 2.182922,-0.86693 2.411916,-1.06798 0.0735,-0.0645 0.19268,-0.11736 0.2648,-0.11736 0.0721,0 0.17734,-0.0557 0.23381,-0.12372 0.0565,-0.068 0.18497,-0.14886 0.28554,-0.17959 0.10057,-0.0307 0.36391,-0.1846 0.58521,-0.34194 0.2213,-0.15735 0.42785,-0.28608 0.459,-0.28608 0.0311,0 0.12179,-0.059 0.20141,-0.13102 0.1308,-0.11836 0.158,-0.11778 0.28183,0.006 0.0754,0.0754 0.13707,0.20587 0.13707,0.28998 0,0.0841 0.0484,0.19306 0.10749,0.24213 0.0738,0.0612 0.10384,0.32335 0.0959,0.83586 -0.006,0.41067 0.008,0.78079 0.0321,0.8225 0.0922,0.15972 0.0264,2.07949 -0.0778,2.27066 -0.058,0.10643 -0.10768,0.44115 -0.11042,0.74384 -0.003,0.34242 -0.0592,0.65569 -0.14851,0.82923 -0.0789,0.15339 -0.1688,0.45819 -0.19968,0.67733 -0.0309,0.21914 -0.10434,0.47547 -0.16325,0.56962 -0.0589,0.0941 -0.13315,0.3418 -0.16496,0.55033 -0.0318,0.20853 -0.0969,0.45866 -0.14461,0.55583 -0.0637,0.12973 -0.052,0.26 0.0442,0.49017 0.12336,0.29522 0.12129,0.32179 -0.0354,0.45597 -0.0915,0.0784 -0.16641,0.17523 -0.16641,0.21525 0,0.04 -0.13335,0.2355 -0.29633,0.4344 -0.17106,0.20876 -0.29633,0.45531 -0.29633,0.58322 0,0.14975 -0.085,0.28415 -0.26226,0.41461 -0.14423,0.10617 -0.31305,0.28829 -0.37515,0.4047 -0.0621,0.11642 -0.29076,0.3952 -0.508137,0.61951 -0.268483,0.27705 -0.38197,0.45858 -0.353871,0.56603 0.06119,0.23398 -0.172705,0.52594 -0.370944,0.46302 -0.130804,-0.0415 -0.193364,0.0201 -0.319667,0.31473 -0.160616,0.3747 -0.76819,1.00005 -0.971628,1.00005 -0.06224,0 -0.15696,0.0961 -0.210486,0.21359 -0.06226,0.13664 -0.191804,0.2325 -0.35956,0.26605 -0.165393,0.0331 -0.297275,0.12934 -0.35711,0.26067 -0.05218,0.11452 -0.300969,0.34006 -0.552866,0.50119 l -0.457995,0.29298 0.185099,0.19703 c 0.101805,0.10836 0.296731,0.21935 0.433169,0.24664 0.17337,0.0347 0.24807,0.0997 0.24807,0.21607 0,0.0916 0.04119,0.19191 0.09153,0.22302 0.05034,0.0311 0.07001,0.14231 0.0437,0.24711 -0.06109,0.24342 0.162411,0.45172 0.693227,0.64609 0.50683,0.18558 0.553151,0.18728 0.920269,0.0339 z M 87.653898,115.1382 c -0.04983,-0.06 -0.129118,-0.26007 -0.176197,-0.4445 -0.04708,-0.18443 -0.145934,-0.54488 -0.219679,-0.801 -0.100215,-0.34804 -0.113143,-0.54052 -0.05118,-0.762 0.04559,-0.16298 0.12886,-0.47911 0.185033,-0.70249 0.05617,-0.22339 0.172118,-0.49513 0.257653,-0.60387 0.08554,-0.10874 0.192719,-0.29555 0.238184,-0.41513 0.06005,-0.15794 0.276475,-0.31124 0.791043,-0.5603 0.799315,-0.38689 0.909242,-0.40571 1.105218,-0.18916 0.234136,0.25872 0.254358,0.61597 0.06332,1.11861 -0.09686,0.25483 -0.176125,0.58573 -0.176148,0.73533 -8.5e-5,0.68717 -0.752517,1.97238 -1.450867,2.47827 -0.397874,0.28821 -0.439604,0.29899 -0.566375,0.14624 z m 0.897351,-0.60347 c 0.569961,-0.60929 0.92874,-1.28501 1.002607,-1.8883 0.02725,-0.2226 0.126842,-0.64217 0.221305,-0.93236 0.144814,-0.44488 0.155545,-0.56676 0.06843,-0.77709 -0.05683,-0.13719 -0.15889,-0.27077 -0.226802,-0.29683 -0.250112,-0.096 -1.63902,0.58926 -1.63902,0.80863 0,0.0465 -0.09007,0.20583 -0.200152,0.35407 -0.110084,0.14823 -0.281564,0.58495 -0.381068,0.97049 l -0.180915,0.70096 0.169401,0.50286 c 0.09317,0.27658 0.169401,0.53969 0.169401,0.58469 0,0.23014 0.181131,0.51618 0.326863,0.51618 0.08958,0 0.388431,-0.24235 0.669955,-0.5433 z m 32.065511,6.80864 c -0.0931,-0.04 -0.48729,-0.0754 -0.87592,-0.0787 -0.56905,-0.005 -0.7538,-0.0396 -0.94906,-0.17859 -0.13335,-0.095 -0.60683,-0.34177 -1.05218,-0.54846 -0.44534,-0.2067 -0.83141,-0.43236 -0.85793,-0.50147 -0.0265,-0.0691 -0.1209,-0.14872 -0.20973,-0.17691 -0.1059,-0.0336 -0.16162,-0.12947 -0.16182,-0.27839 0,-0.12492 -0.0744,-0.34857 -0.16487,-0.497 -0.0905,-0.14843 -0.28608,-0.62468 -0.43462,-1.05834 -0.14853,-0.43365 -0.29834,-0.82656 -0.33291,-0.87312 -0.0346,-0.0466 -0.12456,-0.29999 -0.2,-0.56315 -0.11486,-0.40067 -0.12327,-0.61409 -0.0517,-1.31233 0.047,-0.45862 0.10132,-1.10056 0.12074,-1.42652 0.0548,-0.91959 0.18358,-1.67938 0.33393,-1.97012 0.0754,-0.14583 0.13711,-0.32602 0.13711,-0.40044 0,-0.0744 0.0762,-0.29301 0.16934,-0.48577 0.0931,-0.19276 0.16933,-0.39878 0.16933,-0.45782 0,-0.059 0.0857,-0.23768 0.1905,-0.397 0.10478,-0.15932 0.33432,-0.52426 0.51009,-0.81099 0.34233,-0.5584 0.54178,-0.68486 1.08005,-0.68486 0.49493,0 0.90975,0.22897 0.97803,0.53986 0.0312,0.1419 0.14629,0.39343 0.25582,0.55895 0.10954,0.16553 0.2224,0.43368 0.25081,0.5959 0.0284,0.16223 0.10543,0.4386 0.17117,0.61417 0.0657,0.17556 0.11954,0.51846 0.11955,0.762 1e-5,0.38994 0.0888,0.94142 0.3438,2.13612 0.14318,0.67077 0.4131,1.25343 0.69073,1.49104 0.52508,0.44939 1.48846,0.28275 2.34068,-0.40488 0.24982,-0.20157 0.50509,-0.3665 0.56726,-0.3665 0.13141,0 1.19443,-1.26365 1.41315,-1.67985 0.0817,-0.15556 0.24461,-0.66146 0.36191,-1.12422 0.1173,-0.46275 0.28709,-1.04032 0.3773,-1.28348 0.0902,-0.24316 0.20544,-0.67071 0.25607,-0.95011 0.16755,-0.92459 0.18717,-0.98001 0.3983,-1.12554 0.11527,-0.0795 0.28215,-0.21114 0.37085,-0.29263 0.26017,-0.23904 0.53012,-0.17507 1.03559,0.24541 0.13163,0.1095 0.32699,0.19909 0.43414,0.19909 0.10714,0 0.23931,0.0536 0.29372,0.11919 0.0692,0.0834 0.34692,0.12789 0.92422,0.14816 0.77926,0.0274 0.84398,0.0439 1.16028,0.29687 0.26453,0.21154 0.36419,0.3718 0.47387,0.762 0.28657,1.01951 0.33757,1.3437 0.24832,1.57846 -0.0474,0.12458 -0.0658,0.27955 -0.0409,0.34436 0.0249,0.0648 0.0567,0.47472 0.0707,0.9109 0.0257,0.79903 0.24105,1.97144 0.39664,2.15891 0.10726,0.12925 0.49577,1.37467 0.49744,1.59465 8.5e-4,0.0916 0.0633,0.32892 0.13911,0.52743 0.1282,0.33567 0.12744,0.41447 -0.0107,1.12571 -0.15862,0.81661 -0.1619,0.8217 -0.98327,1.52773 -0.21476,0.18459 -0.43091,0.33563 -0.48034,0.33563 -0.0494,0 -0.19757,0.0888 -0.3292,0.19726 -0.13163,0.10849 -0.31553,0.22746 -0.40866,0.26438 -0.15918,0.0631 -1.50228,0.2259 -1.85447,0.22478 -0.0886,-2.6e-4 -0.23998,0.0547 -0.33634,0.1222 -0.47715,0.3342 -0.85757,0.0183 -0.99336,-0.82487 -0.0462,-0.28694 -0.10158,-0.55012 -0.12304,-0.58485 -0.0215,-0.0347 -0.0759,-0.25765 -0.12099,-0.49539 -0.20732,-1.09317 -1.13438,-2.77548 -1.4291,-2.59333 -0.0446,0.0276 -0.16503,0.22358 -0.26767,0.43561 -0.10265,0.21204 -0.3155,0.57286 -0.473,0.80183 -0.1575,0.22896 -0.28636,0.43845 -0.28636,0.46553 0,0.0565 -0.63786,0.97995 -1.11138,1.60895 -0.54933,0.7297 -1.56166,1.59128 -2.00894,1.70977 -0.45272,0.11992 -0.50239,0.12147 -0.73202,0.0228 z m 0.77716,-0.13304 c 0.53933,-0.0972 1.78182,-1.37808 2.66334,-2.74563 0.54554,-0.84632 0.97736,-1.56135 1.16325,-1.92617 0.12221,-0.23983 0.23909,-0.35983 0.35045,-0.35983 0.29795,0 1.07537,1.30975 1.33176,2.24367 0.22514,0.8201 0.29154,1.10108 0.36079,1.52655 0.1274,0.78274 0.41266,1.04515 0.82343,0.75744 0.11935,-0.0836 0.47614,-0.14604 1.01367,-0.17739 0.81023,-0.0473 1.54915,-0.23173 1.54915,-0.38676 0,-0.0426 0.13974,-0.13587 0.31052,-0.20723 0.17079,-0.0714 0.54493,-0.33682 0.83143,-0.58992 l 0.52092,-0.46019 0.14939,-0.79313 c 0.13715,-0.72818 0.1384,-0.81436 0.0152,-1.05254 -0.0738,-0.14269 -0.13522,-0.36609 -0.13651,-0.49646 -0.002,-0.20434 -0.1265,-0.60204 -0.57754,-1.84571 -0.1697,-0.4679 -0.37461,-1.55324 -0.32737,-1.73391 0.0257,-0.0983 0.011,-0.43126 -0.0327,-0.7399 -0.054,-0.38133 -0.0501,-0.65009 0.0121,-0.83869 0.0671,-0.20338 0.0655,-0.32627 -0.006,-0.4599 -0.0537,-0.1003 -0.10814,-0.30219 -0.12103,-0.44865 -0.0505,-0.5737 -0.301,-1.1057 -0.62325,-1.32349 -0.26963,-0.18223 -0.41833,-0.21315 -1.10606,-0.23 -0.57353,-0.014 -0.83444,-0.0556 -0.93799,-0.14929 -0.0789,-0.0714 -0.20942,-0.12983 -0.29004,-0.12983 -0.0806,0 -0.32123,-0.13335 -0.53468,-0.29634 -0.41044,-0.31339 -0.67738,-0.37542 -0.7542,-0.17525 -0.0256,0.0666 -0.15636,0.1594 -0.29069,0.20623 -0.16719,0.0583 -0.26038,0.1603 -0.2954,0.32341 -0.0281,0.13105 -0.0866,0.3258 -0.12998,0.43276 -0.0433,0.10697 -0.0788,0.28576 -0.0788,0.39731 0,0.11156 -0.12872,0.59579 -0.28605,1.07606 -0.15733,0.48028 -0.33148,1.09204 -0.38699,1.35947 -0.0555,0.26743 -0.20302,0.68786 -0.32779,0.93429 -0.26182,0.51715 -1.25771,1.75339 -1.4125,1.75339 -0.0575,0 -0.2949,0.15155 -0.52753,0.33678 -0.58594,0.46653 -1.12065,0.67922 -1.70759,0.67922 -0.43198,0 -0.52374,-0.0325 -0.8291,-0.29391 -0.43755,-0.37453 -0.55447,-0.69451 -0.91318,-2.49934 -0.0786,-0.39541 -0.14425,-0.92881 -0.14594,-1.18534 -0.002,-0.25652 -0.0503,-0.56166 -0.10809,-0.67808 -0.0578,-0.11641 -0.13045,-0.37755 -0.16154,-0.5803 -0.0311,-0.20276 -0.14651,-0.48851 -0.2565,-0.635 -0.11,-0.1465 -0.22702,-0.39372 -0.26005,-0.54938 -0.0949,-0.44719 -0.75002,-0.64979 -1.38519,-0.42837 -0.14664,0.0511 -0.26663,0.11784 -0.26663,0.14825 0,0.0304 -0.20955,0.37564 -0.46566,0.76716 -0.25612,0.39151 -0.46567,0.77394 -0.46567,0.84984 0,0.0759 -0.0762,0.28746 -0.16933,0.47014 -0.0931,0.18267 -0.16934,0.40217 -0.16934,0.48777 0,0.0856 -0.0617,0.27495 -0.13711,0.42078 -0.18537,0.35847 -0.27112,0.98885 -0.41188,3.02808 -0.0241,0.34906 -0.0639,0.74911 -0.0885,0.889 -0.0282,0.16062 0.0358,0.4728 0.17379,0.84703 0.12019,0.32597 0.32734,0.89747 0.46034,1.27 0.133,0.37254 0.32153,0.83742 0.41894,1.03308 0.0974,0.19566 0.17712,0.43378 0.17712,0.52917 0,0.0954 0.0366,0.17342 0.0812,0.17342 0.0447,0 0.16851,0.0901 0.27516,0.20016 0.10667,0.11009 0.64898,0.43394 1.20515,0.71967 0.98473,0.5059 1.02908,0.51966 1.69333,0.52545 0.37517,0.003 0.75832,0.0387 0.85145,0.0787 0.0931,0.04 0.21425,0.0586 0.26916,0.0413 0.0549,-0.0173 0.2454,-0.0577 0.42333,-0.0897 z m -59.959156,0.0586 c -0.09313,-0.0372 -0.5093,-0.0737 -0.924813,-0.0811 -0.509731,-0.009 -0.8186,-0.0549 -0.949522,-0.14066 -0.117894,-0.0772 -0.392601,-0.12714 -0.700023,-0.12714 -0.27829,0 -0.526751,-0.0336 -0.552135,-0.0747 -0.02538,-0.0411 -0.303857,-0.10223 -0.61883,-0.13591 -0.314972,-0.0337 -0.67556,-0.11437 -0.801306,-0.17932 -0.125746,-0.0649 -0.310746,-0.1181 -0.411111,-0.1181 -0.100365,0 -0.297096,-0.0964 -0.437179,-0.21431 -0.161279,-0.13571 -0.312453,-0.19598 -0.412172,-0.16433 -0.199972,0.0635 -1.152632,-0.19502 -1.433314,-0.3889 -0.117188,-0.081 -0.3285,-0.19854 -0.46958,-0.26132 -0.763686,-0.33982 -1.802597,-1.01785 -2.339798,-1.52705 -0.333737,-0.31633 -0.666515,-0.59426 -0.739506,-0.61761 -0.144309,-0.0462 -0.980056,-0.94249 -1.31142,-1.40646 -0.276537,-0.38721 -0.633053,-1.143 -0.718447,-1.52306 -0.07538,-0.3355 0.01221,-0.58562 0.205083,-0.58562 0.06592,0 0.255481,-0.11909 0.421256,-0.26464 0.204937,-0.17994 0.415899,-0.27691 0.659113,-0.30297 0.344848,-0.037 0.379004,-0.0179 0.950371,0.5313 0.325966,0.3133 0.691459,0.63061 0.812206,0.70514 0.120747,0.0745 0.343462,0.2117 0.494923,0.30483 0.15146,0.0931 0.410331,0.27411 0.575269,0.40217 0.164937,0.12806 0.334884,0.23283 0.377659,0.23283 0.04277,0 0.308147,0.1143 0.589713,0.254 0.281568,0.1397 0.578266,0.254 0.65933,0.254 0.08106,0 0.358981,0.0728 0.617592,0.16177 0.258611,0.089 0.7694,0.20514 1.135088,0.25814 0.365687,0.053 1.007786,0.16816 1.426886,0.25592 1.409432,0.29514 3.58859,0.42117 4.445,0.25707 0.20955,-0.0401 0.687718,-0.12663 1.062595,-0.19218 0.765457,-0.13384 1.790266,-0.56915 2.085977,-0.88607 0.107669,-0.11538 0.330824,-0.27907 0.495901,-0.36375 0.469234,-0.2407 0.96599,-0.84477 1.35414,-1.64669 0.284464,-0.5877 0.347435,-0.79928 0.313404,-1.053 -0.02439,-0.18181 0.01169,-0.45957 0.08441,-0.64987 0.07136,-0.18672 0.139945,-0.7033 0.156539,-1.179 0.01625,-0.46567 0.0352,-0.94192 0.04213,-1.05834 0.0069,-0.11641 -0.03201,-0.42121 -0.08652,-0.67733 -0.05451,-0.25612 -0.135982,-0.75142 -0.181041,-1.10067 -0.04506,-0.34925 -0.138238,-0.73613 -0.207064,-0.85973 -0.06883,-0.1236 -0.12517,-0.37125 -0.125208,-0.55033 -3.8e-5,-0.17908 -0.05895,-0.60785 -0.130921,-0.95283 -0.07197,-0.34497 -0.110387,-0.68055 -0.08537,-0.74573 0.02501,-0.0652 -0.03037,-0.26718 -0.123079,-0.4489 -0.0927,-0.18172 -0.168555,-0.40345 -0.168555,-0.49274 0,-0.0893 -0.05745,-0.21002 -0.127671,-0.26829 -0.07022,-0.0583 -0.228111,-0.43442 -0.350871,-0.83587 -0.122761,-0.40145 -0.248532,-0.75883 -0.279492,-0.79417 -0.06175,-0.0705 -0.577371,-0.0739 -2.247633,-0.0149 -1.467242,0.0518 -1.432557,0.0527 -2.159,-0.0563 -0.34925,-0.0525 -0.8636,-0.0921 -1.143,-0.0881 -0.552602,0.008 -2.05208,-0.2631 -2.352921,-0.4252 -0.102893,-0.0554 -0.415679,-0.18114 -0.695079,-0.27935 -0.676512,-0.23777 -2.210914,-1.269616 -2.46986,-1.660909 -0.171748,-0.259529 -0.188807,-0.342795 -0.111751,-0.545468 0.08816,-0.231873 0.04488,-0.672182 -0.08302,-0.844767 -0.03451,-0.04657 -0.10778,-0.320504 -0.162817,-0.608749 -0.109008,-0.570904 -0.08252,-0.670806 0.385019,-1.452095 0.357359,-0.597174 1.243255,-0.999311 2.031318,-0.922085 0.793592,0.07777 2.023967,0.241575 2.443116,0.325264 0.232833,0.04649 0.728133,0.131934 1.100667,0.189878 0.372533,0.05795 0.772583,0.157772 0.889,0.22184 0.150802,0.08299 0.589024,0.12003 1.524,0.128815 1.102583,0.01036 1.381733,0.0399 1.746545,0.184854 0.280797,0.111569 0.480668,0.146526 0.565697,0.09894 0.161552,-0.09041 0.963038,-0.03229 1.921091,0.139307 0.395817,0.07089 0.948267,0.121186 1.227667,0.11176 0.291697,-0.0098 0.594515,0.03011 0.711188,0.09383 0.140505,0.07674 0.323339,0.0912 0.592666,0.04688 0.989861,-0.162886 2.945439,-0.190167 3.216914,-0.04488 0.203799,0.10907 0.167947,0.107971 2.130631,0.06533 0.86427,-0.01877 1.636674,-0.07067 1.716453,-0.115313 0.09241,-0.05172 0.341404,-0.05183 0.686132,-3.38e-4 0.376186,0.05622 0.730367,0.05027 1.162214,-0.01951 0.341624,-0.0552 0.742688,-0.111609 0.891252,-0.125346 0.148565,-0.01374 0.320015,-0.06578 0.381,-0.115657 0.172804,-0.141318 0.927005,-0.161763 1.232716,-0.03342 0.218377,0.09168 0.275167,0.164957 0.275167,0.355045 0,0.131736 0.05159,0.269989 0.11465,0.307228 0.162504,0.09597 0.251803,0.487888 0.25657,1.12604 0.0032,0.422446 -0.04092,0.630036 -0.189672,0.893313 -0.202264,0.357989 -0.820568,0.800021 -1.119052,0.800021 -0.09273,0 -0.291202,0.05109 -0.441049,0.11354 -0.149845,0.06245 -0.478687,0.140782 -0.730757,0.174082 -0.252071,0.0333 -0.804521,0.16972 -1.227667,0.30317 -1.233799,0.38912 -1.803888,0.5099 -2.406587,0.5099 -0.310871,0 -0.693507,0.0368 -0.850301,0.0818 -0.156795,0.045 -0.766144,0.12434 -1.354108,0.17638 -0.603722,0.0534 -1.116077,0.13991 -1.177123,0.19869 -0.08725,0.084 -0.06732,0.16022 0.10333,0.39513 0.694293,0.95575 1.576832,2.33922 1.661976,2.60532 0.05462,0.17072 0.165107,0.38659 0.24552,0.47972 0.381493,0.44184 0.759535,1.20688 0.815838,1.651 0.03247,0.25612 0.107643,0.54187 0.167055,0.635 0.126923,0.19897 0.45871,1.49744 0.45871,1.7952 0,0.11308 0.04006,0.28045 0.08901,0.37192 0.04896,0.0915 0.111155,0.289 0.13822,0.43894 0.08037,0.44527 0.08059,3.55321 2.54e-4,3.82861 -0.04075,0.1397 -0.144716,0.5588 -0.231046,0.93133 -0.275185,1.18749 -0.4134,1.59255 -0.619306,1.81499 -0.110486,0.11936 -0.298976,0.42656 -0.418867,0.68268 -0.250894,0.53597 -0.368184,0.67728 -0.948682,1.143 -0.232175,0.18627 -0.672778,0.56794 -0.979117,0.84817 -0.510157,0.46669 -1.448031,1.05683 -1.679545,1.05683 -0.05264,0 -0.418005,0.1524 -0.811924,0.33867 -0.393918,0.18626 -0.811155,0.33866 -0.927194,0.33866 -0.116037,0 -0.431138,0.1004 -0.700225,0.22312 -0.454514,0.20728 -0.588427,0.22506 -1.886247,0.25051 -2.241328,0.0439 -4.252211,0.11274 -4.572,0.15641 -0.162984,0.0222 -0.372534,0.01 -0.465667,-0.0271 z m 2.032,-0.14803 c 0.8382,-0.0304 1.854523,-0.0474 2.258497,-0.0377 0.403972,0.01 0.871429,-0.0202 1.038791,-0.0664 0.187722,-0.0518 0.406122,-0.0548 0.570099,-0.008 0.212109,0.0608 0.369989,0.0321 0.781542,-0.14232 0.283655,-0.1202 0.687188,-0.24622 0.896738,-0.28003 0.20955,-0.0338 0.66675,-0.1985 1.016,-0.36599 0.34925,-0.16749 0.838479,-0.38599 1.087176,-0.48557 0.467522,-0.18719 1.28349,-0.72584 1.28349,-0.84728 0,-0.038 0.244721,-0.26132 0.543824,-0.49637 0.817267,-0.64227 1.123632,-0.98044 1.413118,-1.55982 0.144528,-0.28926 0.335283,-0.60506 0.4239,-0.70177 0.174145,-0.19004 0.339245,-0.69768 0.581316,-1.78739 0.0847,-0.38127 0.175426,-0.7279 0.201618,-0.77028 0.09348,-0.15124 0.06974,-3.44475 -0.02789,-3.87049 -0.05339,-0.23283 -0.154882,-0.72802 -0.225527,-1.10041 -0.07065,-0.3724 -0.20386,-0.88675 -0.296032,-1.143 -0.09217,-0.25626 -0.221767,-0.72767 -0.287989,-1.04758 -0.07086,-0.34232 -0.208445,-0.69709 -0.334371,-0.86219 -0.117681,-0.15429 -0.215027,-0.31164 -0.216322,-0.34967 -0.0013,-0.038 -0.115595,-0.21881 -0.254,-0.40173 -0.138405,-0.18292 -0.251645,-0.38429 -0.251645,-0.44748 0,-0.12706 -0.04418,-0.2022 -0.835633,-1.42127 -0.302321,-0.46567 -0.657081,-0.97182 -0.788355,-1.12478 -0.46668,-0.54379 -0.315865,-0.65198 1.080414,-0.77505 0.555082,-0.0489 1.142591,-0.12456 1.305574,-0.16807 0.162984,-0.0435 0.620184,-0.0984 1.016,-0.12203 0.821127,-0.049 1.542501,-0.2005 2.453504,-0.51533 0.348243,-0.12034 0.843543,-0.242461 1.100667,-0.271367 0.257123,-0.02891 0.5744,-0.106496 0.705061,-0.172422 0.130661,-0.06592 0.345186,-0.133484 0.476722,-0.150131 0.382734,-0.04844 0.895965,-0.423492 1.065741,-0.778813 0.215744,-0.451527 0.265445,-1.147712 0.09891,-1.385476 -0.07177,-0.102469 -0.112164,-0.234077 -0.08976,-0.292461 0.02241,-0.0584 -0.0412,-0.127578 -0.141396,-0.153781 -0.152891,-0.03998 -0.173175,-0.0884 -0.126354,-0.301573 0.04329,-0.197108 0.02074,-0.272694 -0.100742,-0.337711 -0.244143,-0.130662 -1.143883,-0.09853 -1.308783,0.04674 -0.08716,0.07679 -0.211482,0.103161 -0.321563,0.06822 -0.104924,-0.0333 -0.235946,-0.0101 -0.315451,0.05587 -0.09567,0.07938 -0.489844,0.119928 -1.329437,0.136773 -3.679367,0.07382 -4.284523,0.09352 -4.363008,0.142025 -0.04741,0.0293 -0.249006,0.0069 -0.447989,-0.0498 -0.457532,-0.130359 -0.862043,-0.185372 -1.29312,-0.175862 -0.521461,0.0115 -1.561214,0.08835 -2.038031,0.150621 -0.314723,0.0411 -0.498541,0.02031 -0.688444,-0.0779 -0.187491,-0.09696 -0.32977,-0.113701 -0.514909,-0.0606 -0.162149,0.0465 -0.499122,0.03242 -0.920223,-0.03846 -1.587742,-0.267241 -2.221367,-0.323469 -2.358898,-0.209328 -0.096,0.07967 -0.182355,0.08571 -0.319214,0.02233 -0.597618,-0.276767 -0.758661,-0.301856 -2.050281,-0.319419 -1.021067,-0.01389 -1.417216,-0.05037 -1.608666,-0.148174 -0.1397,-0.07136 -0.499784,-0.155752 -0.800187,-0.187529 -0.300402,-0.03178 -0.610074,-0.09197 -0.688159,-0.133756 -0.07808,-0.04179 -0.57525,-0.116592 -1.104813,-0.166228 -0.529563,-0.04964 -1.103998,-0.127991 -1.276522,-0.174124 -0.402284,-0.10757 -1.33345,0.03432 -1.820843,0.27745 -0.22488,0.112181 -0.405475,0.281011 -0.489099,0.457233 -0.07292,0.153661 -0.170233,0.302657 -0.216259,0.331102 -0.04603,0.02845 -0.139332,0.184903 -0.207345,0.347683 -0.131579,0.314913 -0.06183,0.945208 0.152431,1.377479 0.05544,0.111845 0.09544,0.454033 0.08889,0.760417 -0.009,0.421563 0.0252,0.604235 0.140641,0.750997 0.215903,0.274476 1.744453,1.266535 2.199599,1.427585 0.20955,0.0742 0.51435,0.20331 0.677333,0.28702 0.460408,0.23648 2.003283,0.51308 2.520359,0.45184 0.270443,-0.032 0.482881,-0.0165 0.551344,0.0403 0.06236,0.0518 0.500811,0.098 0.996337,0.10513 0.486728,0.007 0.99926,0.0149 1.13896,0.0177 0.710101,0.0139 1.096298,0.007 1.967147,-0.0344 0.821562,-0.0393 0.956354,-0.0272 0.989359,0.089 0.276907,0.97435 0.413379,1.36089 0.555645,1.57378 0.09335,0.1397 0.169985,0.32257 0.170291,0.40637 3.39e-4,0.0838 0.06301,0.27315 0.139352,0.42077 0.07634,0.14762 0.153404,0.4791 0.17126,0.73663 0.01786,0.25753 0.06949,0.60158 0.114733,0.76457 0.04525,0.16298 0.08248,0.46968 0.08274,0.68156 2.54e-4,0.21188 0.0481,0.43252 0.106306,0.49032 0.05821,0.0578 0.151081,0.41783 0.206383,0.8001 0.0553,0.38226 0.145994,0.90457 0.201537,1.16068 0.05554,0.25612 0.09684,0.56092 0.09178,0.67734 -0.0051,0.11641 -0.0201,0.63892 -0.03341,1.16113 -0.01557,0.61113 -0.06148,0.98675 -0.128825,1.0541 -0.05755,0.0575 -0.105205,0.31607 -0.105907,0.57453 -0.0029,1.06546 -0.818251,2.41891 -1.805922,2.99773 -0.205863,0.12064 -0.39723,0.27911 -0.425259,0.35215 -0.02803,0.0731 -0.333602,0.26703 -0.67905,0.43109 -0.562915,0.26732 -1.313976,0.45651 -2.380161,0.59954 -0.186266,0.025 -0.376766,0.0723 -0.423333,0.10519 -0.07424,0.0524 -1.416424,0.004 -2.963333,-0.10612 -0.2794,-0.0199 -0.8128,-0.11331 -1.185334,-0.20747 -0.372533,-0.0941 -0.982371,-0.21041 -1.355195,-0.25834 -1.205052,-0.15493 -2.891625,-0.73998 -3.52113,-1.22145 -0.167379,-0.12801 -0.331846,-0.23275 -0.365482,-0.23275 -0.03364,0 -0.182609,-0.0926 -0.331051,-0.20586 -0.148441,-0.11322 -0.374498,-0.24563 -0.50235,-0.29424 -0.127853,-0.0486 -0.232458,-0.14195 -0.232458,-0.20742 0,-0.0655 -0.142875,-0.22765 -0.3175,-0.36038 -0.174625,-0.13274 -0.402219,-0.33224 -0.505763,-0.44334 -0.163326,-0.17524 -0.2375,-0.19461 -0.559994,-0.14625 -0.239938,0.036 -0.44335,0.13275 -0.573737,0.27293 -0.111104,0.11946 -0.287731,0.25031 -0.392506,0.29078 -0.250924,0.0969 -0.246913,0.37218 0.01447,0.99321 0.246431,0.58549 0.648342,1.19324 1.130348,1.70924 0.195746,0.20955 0.356376,0.4088 0.356956,0.44277 5.93e-4,0.034 0.149722,0.13763 0.331424,0.23033 0.181704,0.0927 0.515079,0.36174 0.740834,0.59787 0.866088,0.90591 3.571236,2.29893 4.163561,2.14403 0.130349,-0.0341 0.254014,0.008 0.384973,0.13104 0.218402,0.20518 0.859856,0.40871 1.63971,0.52029 0.290646,0.0416 0.605905,0.11706 0.700578,0.16773 0.09467,0.0507 0.352171,0.0841 0.57222,0.0743 0.240755,-0.0107 0.508524,0.0385 0.672368,0.12359 0.183612,0.0953 0.494602,0.14377 0.954992,0.1487 0.375492,0.004 0.786367,0.0382 0.913054,0.0758 0.126688,0.0377 0.287492,0.0536 0.357342,0.0354 0.06985,-0.0182 0.8128,-0.058 1.651,-0.0884 z"
         id="path3774"
         inkscape:connector-curvature="0" />
      <path
         style="fill:#009e73;stroke-width:0.08466666"
         d="m 145.00076,135.23104 c -0.1397,-0.0368 -0.4064,-0.13617 -0.59266,-0.22091 -0.29397,-0.13374 -0.59012,-0.15484 -2.24367,-0.15989 -1.35948,-0.004 -2.15958,-0.0469 -2.794,-0.14924 -1.4003,-0.22593 -4.4679,-0.35062 -6.93218,-0.28176 -1.66406,0.0465 -2.72777,0.0267 -4.52689,-0.0841 -1.94984,-0.12008 -2.53534,-0.12789 -3.42616,-0.0457 -3.6785,0.33927 -4.43034,0.35769 -4.69719,0.11509 -0.10299,-0.0936 -0.2825,-0.19168 -0.39891,-0.21786 -0.57141,-0.12854 -1.38167,-0.39045 -1.46467,-0.47344 -0.0513,-0.0513 -0.14306,-0.0932 -0.204,-0.0932 -0.17227,0 -0.769,-0.46248 -1.04524,-0.81008 -0.27272,-0.34318 -0.29369,-0.53326 -0.17588,-1.59432 0.0721,-0.64967 0.19523,-0.80466 0.94245,-1.18653 0.69003,-0.35264 2.51178,-0.83715 3.8585,-1.0262 1.8189,-0.25532 7.13377,-0.36618 9.91161,-0.20673 5.72736,0.32875 13.3627,1.3037 16.20189,2.06881 0.58209,0.15686 1.16201,0.30797 1.28872,0.33579 0.12672,0.0278 0.27561,0.13508 0.33088,0.23835 0.0553,0.10326 0.15616,0.24343 0.22421,0.31148 0.26998,0.26998 -0.046,2.02663 -0.43439,2.41504 -0.2124,0.2124 -2.58621,1.02451 -3.18742,1.09044 -0.20955,0.023 -0.4953,0.0117 -0.635,-0.025 z"
         id="path3772"
         inkscape:connector-curvature="0" />
      <path
         style="fill:#ffffff;stroke-width:0.08466666"
         d="m 97.696221,135.74514 c -0.530816,-0.19437 -0.75432,-0.40267 -0.693227,-0.64609 0.0263,-0.1048 0.0066,-0.216 -0.0437,-0.24711 -0.05034,-0.0311 -0.09153,-0.13147 -0.09153,-0.22302 0,-0.11633 -0.0747,-0.1814 -0.24807,-0.21607 -0.136438,-0.0273 -0.331364,-0.13828 -0.433169,-0.24664 l -0.185099,-0.19703 0.457995,-0.29298 c 0.251897,-0.16113 0.500686,-0.38667 0.552866,-0.50119 0.05983,-0.13133 0.191717,-0.22759 0.35711,-0.26067 0.167756,-0.0336 0.297303,-0.12941 0.35956,-0.26605 0.05353,-0.11747 0.148245,-0.21359 0.210486,-0.21359 0.203438,0 0.811012,-0.62535 0.971628,-1.00005 0.126303,-0.29465 0.188863,-0.35624 0.319667,-0.31473 0.198239,0.0629 0.432133,-0.22903 0.370944,-0.46302 -0.0281,-0.10745 0.08539,-0.28898 0.353871,-0.56602 0.217377,-0.22432 0.446037,-0.5031 0.508137,-0.61952 0.0621,-0.11641 0.23092,-0.29853 0.37515,-0.4047 0.17725,-0.13046 0.26226,-0.26485 0.26226,-0.41461 0,-0.12791 0.12527,-0.37446 0.29633,-0.58321 0.16298,-0.1989 0.29633,-0.39439 0.29633,-0.43441 0,-0.04 0.0749,-0.13688 0.16641,-0.21525 0.15671,-0.13418 0.15878,-0.16074 0.0354,-0.45597 -0.0962,-0.23017 -0.10792,-0.36044 -0.0442,-0.49017 0.0477,-0.0972 0.1128,-0.34729 0.14461,-0.55583 0.0318,-0.20853 0.10604,-0.45618 0.16496,-0.55033 0.0589,-0.0941 0.13238,-0.35048 0.16325,-0.56962 0.0309,-0.21914 0.12074,-0.52394 0.19968,-0.67733 0.0893,-0.17353 0.14542,-0.48681 0.14851,-0.82923 0.003,-0.30268 0.0524,-0.63741 0.11042,-0.74384 0.10418,-0.19117 0.16992,-2.11094 0.0778,-2.27066 -0.0241,-0.0417 -0.0385,-0.41183 -0.0321,-0.82249 0.008,-0.51252 -0.0221,-0.77464 -0.0959,-0.83587 -0.0591,-0.0491 -0.10749,-0.15802 -0.10749,-0.24213 0,-0.0841 -0.0617,-0.21459 -0.13707,-0.28998 -0.12383,-0.12383 -0.15103,-0.12441 -0.28183,-0.006 -0.0796,0.0721 -0.17026,0.13101 -0.20141,0.13101 -0.0311,0 -0.2377,0.12874 -0.459,0.28608 -0.2213,0.15735 -0.48464,0.31122 -0.58521,0.34195 -0.10057,0.0307 -0.22906,0.11154 -0.28554,0.17958 -0.0565,0.068 -0.16169,0.12372 -0.23381,0.12372 -0.0721,0 -0.19128,0.0528 -0.2648,0.11736 -0.228994,0.20105 -2.186853,1.06798 -2.411916,1.06798 -0.202407,0 -0.513606,0.11096 -1.124479,0.40096 -0.148533,0.0705 -0.367608,0.12106 -0.486833,0.11233 -0.400176,-0.0293 -0.59529,-0.0148 -1.063438,0.0792 -0.256117,0.0514 -0.694267,0.12484 -0.973667,0.16313 -0.2794,0.0383 -0.83185,0.11639 -1.227666,0.17356 -1.089222,0.15732 -3.719225,0.0477 -4.209048,-0.17544 -0.263704,-0.12013 -0.515926,-0.16128 -0.901398,-0.14705 -0.477156,0.0176 -0.579368,-0.009 -0.9419,-0.2496 -0.223664,-0.14815 -0.534956,-0.29343 -0.69176,-0.32284 -0.156804,-0.0294 -0.30593,-0.0872 -0.331391,-0.12839 -0.06799,-0.11001 -0.917284,-0.49857 -1.089741,-0.49857 -0.08134,0 -0.306267,-0.1512 -0.49983,-0.33601 -0.193562,-0.1848 -0.603706,-0.57592 -0.911429,-0.86915 -0.307723,-0.29324 -0.584921,-0.61326 -0.615995,-0.71117 -0.03107,-0.0979 -0.131725,-0.24609 -0.22367,-0.32929 -0.09194,-0.0832 -0.167172,-0.2247 -0.167172,-0.31442 0,-0.0897 -0.132409,-0.32472 -0.294243,-0.52221 -0.533347,-0.65088 -0.75533,-2.2577 -0.510363,-3.69424 0.129435,-0.75904 0.219422,-1.02147 0.647915,-1.88948 0.100086,-0.20274 0.156981,-0.40907 0.126433,-0.45849 -0.03055,-0.0494 0.03475,-0.19787 0.145107,-0.32987 0.110356,-0.132 0.227478,-0.32573 0.260272,-0.4305 0.03279,-0.10478 0.09262,-0.1905 0.132959,-0.1905 0.04033,0 0.395335,-0.3048 0.788891,-0.67734 0.393556,-0.37253 0.778283,-0.67733 0.85495,-0.67733 0.07667,0 0.161166,-0.0567 0.187776,-0.12608 0.02661,-0.0694 0.206389,-0.16754 0.399509,-0.21822 0.19312,-0.0507 0.491768,-0.20348 0.663663,-0.33958 0.171894,-0.1361 0.389638,-0.24745 0.483874,-0.24745 0.09424,0 0.349013,-0.0603 0.566169,-0.13405 0.371073,-0.12599 1.282838,-0.15524 3.737761,-0.11993 0.509067,0.007 1.2478,0.31964 1.765582,0.74644 0.179846,0.14824 0.373717,0.26954 0.430825,0.26954 0.153389,0 0.704254,0.75711 0.704254,0.96794 0,0.0999 0.07176,0.32235 0.159476,0.49439 0.211072,0.414 0.382239,1.34774 0.318723,1.73867 -0.134141,0.82561 -0.242459,1.16174 -0.477265,1.48103 -0.140214,0.19066 -0.255077,0.42488 -0.255251,0.52048 -4.23e-4,0.24671 -0.245767,0.61811 -0.760584,1.15149 -0.245079,0.25391 -0.596146,0.664 -0.780149,0.9113 -0.184003,0.2473 -0.398316,0.47103 -0.476251,0.49718 -0.448985,0.15061 -1.280641,0.57148 -1.317117,0.66654 -0.146089,0.3807 1.212096,1.30564 1.91923,1.30702 0.176263,3.4e-4 0.404863,0.053 0.508,0.11709 0.103136,0.0641 0.435171,0.16326 0.737854,0.22043 0.660413,0.12476 3.096777,0.12808 3.421385,0.005 0.126668,-0.0482 0.341669,-0.0876 0.477781,-0.0876 0.39215,0 1.785062,-0.47966 2.155693,-0.74232 0.185611,-0.13155 0.543972,-0.33266 0.796359,-0.44693 0.252385,-0.11426 0.667075,-0.40778 0.921535,-0.65225 0.25883,-0.24868 0.54156,-0.44482 0.64178,-0.44524 0.15119,-5.9e-4 0.81413,-0.5227 0.81413,-0.64115 0,-0.0212 -0.0951,-0.22037 -0.21126,-0.44259 -0.11619,-0.22221 -0.25123,-0.63109 -0.3001,-0.90861 -0.0489,-0.27752 -0.16129,-0.67832 -0.24984,-0.89067 -0.0886,-0.21236 -0.22365,-0.76481 -0.30022,-1.22767 -0.0766,-0.46286 -0.21197,-1.08371 -0.30089,-1.37966 -0.17316,-0.57625 -0.21604,-1.40799 -0.077,-1.49391 0.0466,-0.0288 0.0847,-0.15036 0.0847,-0.27017 0,-0.11981 0.0809,-0.34874 0.17977,-0.50872 0.15529,-0.25127 0.22159,-0.28899 0.48684,-0.27696 0.47602,0.0216 0.49677,0.013 0.58617,-0.24349 0.0767,-0.22011 0.12921,-0.24573 0.60523,-0.29548 0.37579,-0.0393 0.57316,-0.0219 0.70743,0.0622 0.10242,0.0641 0.33862,0.14319 0.52489,0.17564 0.18627,0.0324 0.39582,0.10505 0.46567,0.16132 0.25144,0.20256 0.75616,0.31794 1.13943,0.26047 0.3493,-0.0524 0.40578,-0.0335 0.73041,0.24438 0.58209,0.49825 1.94413,2.46476 2.06181,2.97684 0.0321,0.1397 0.15066,0.38858 0.26345,0.55308 0.32731,0.47737 0.74065,2.11852 0.72116,2.86334 -0.0126,0.48127 0.016,0.65817 0.12632,0.78002 0.0785,0.0867 0.12153,0.21253 0.0958,0.27968 -0.0258,0.0672 0.008,0.38289 0.0744,0.70163 0.14655,0.70043 0.15387,1.06343 0.0241,1.19322 -0.0731,0.0731 -0.0716,0.21878 0.006,0.58844 0.17639,0.83937 -0.081,3.016 -0.37621,3.1812 -0.14148,0.0792 -0.16989,0.44753 -0.0407,0.52739 0.14017,0.0866 0.10109,0.76997 -0.0513,0.89641 -0.17995,0.14936 -0.5414,0.97498 -0.5414,1.2367 0,0.11388 -0.10944,0.36631 -0.24319,0.56097 -0.13376,0.19465 -0.26973,0.52537 -0.30216,0.73492 -0.0324,0.20955 -0.11661,0.56214 -0.18707,0.78354 -0.0704,0.2214 -0.11137,0.45 -0.0909,0.508 0.0204,0.058 -0.10978,0.26653 -0.2894,0.4634 -0.21877,0.23977 -0.32658,0.43755 -0.32658,0.59907 0,0.14931 -0.0826,0.31876 -0.21695,0.44495 -0.11932,0.1121 -0.29832,0.33782 -0.39778,0.50159 -0.0995,0.16378 -0.32568,0.47168 -0.50272,0.68423 -0.17703,0.21255 -0.32188,0.42476 -0.32188,0.47158 0,0.0468 -0.10478,0.20746 -0.23284,0.35696 -0.12806,0.1495 -0.37531,0.45163 -0.54945,0.67141 -1.38878,1.75271 -1.61032,1.96467 -3.07775,2.94473 -0.51647,0.34493 -1.12134,0.78762 -1.34415,0.98375 -0.22282,0.19613 -0.591467,0.44294 -0.819217,0.54846 -0.22775,0.10551 -0.436581,0.25046 -0.464069,0.32209 -0.02749,0.0716 -0.117449,0.13024 -0.199912,0.13024 -0.08246,0 -0.286715,0.0572 -0.45389,0.127 -0.367117,0.15339 -0.413438,0.15168 -0.920269,-0.0339 z m -9.475948,-20.75318 c 0.69835,-0.50589 1.450759,-1.7911 1.450867,-2.47827 2.3e-5,-0.1496 0.07929,-0.4805 0.176148,-0.73533 0.19104,-0.50264 0.170818,-0.85989 -0.06332,-1.11861 -0.195976,-0.21655 -0.305903,-0.19773 -1.105218,0.18916 -0.514568,0.24906 -0.730996,0.40236 -0.791043,0.5603 -0.04547,0.11958 -0.152648,0.30639 -0.238184,0.41513 -0.08553,0.10874 -0.20148,0.38048 -0.257653,0.60387 -0.05617,0.22338 -0.139438,0.53951 -0.185033,0.70249 -0.06196,0.22148 -0.04903,0.41396 0.05118,0.762 0.07375,0.25612 0.172601,0.61657 0.219679,0.801 0.08616,0.33752 0.214355,0.55367 0.328394,0.55367 0.03388,0 0.220258,-0.11494 0.414178,-0.25541 z m 32.481157,6.26677 c -0.0931,-0.04 -0.47628,-0.0755 -0.85145,-0.0787 -0.66425,-0.006 -0.7086,-0.0195 -1.69333,-0.52545 -0.55617,-0.28573 -1.09849,-0.60958 -1.20515,-0.71967 -0.10665,-0.11009 -0.23048,-0.20016 -0.27516,-0.20016 -0.0447,0 -0.0812,-0.078 -0.0812,-0.17342 0,-0.0954 -0.0797,-0.33351 -0.17713,-0.52917 -0.0974,-0.19566 -0.28593,-0.66054 -0.41893,-1.03308 -0.133,-0.37253 -0.34015,-0.94403 -0.46034,-1.27 -0.13799,-0.37423 -0.20204,-0.68641 -0.17379,-0.84703 0.0246,-0.13989 0.0644,-0.53994 0.0885,-0.889 0.14076,-2.03923 0.2265,-2.66961 0.41188,-3.02808 0.0754,-0.14583 0.13711,-0.33518 0.13711,-0.42078 0,-0.0856 0.0762,-0.3051 0.16933,-0.48777 0.0931,-0.18268 0.16934,-0.39424 0.16934,-0.47014 0,-0.0759 0.20955,-0.45833 0.46566,-0.84984 0.25612,-0.39152 0.46567,-0.73674 0.46567,-0.76716 0,-0.0304 0.11999,-0.0971 0.26663,-0.14825 0.63516,-0.22142 1.2903,-0.0188 1.38519,0.42837 0.033,0.15566 0.15005,0.40288 0.26005,0.54938 0.10999,0.14649 0.22541,0.43224 0.25649,0.635 0.0311,0.20275 0.10379,0.46389 0.16155,0.5803 0.0578,0.11642 0.1064,0.42156 0.10809,0.67808 0.002,0.25653 0.0674,0.78993 0.14594,1.18534 0.35871,1.80483 0.47563,2.12481 0.91318,2.49934 0.30536,0.26138 0.39712,0.29391 0.8291,0.29391 0.58694,0 1.12165,-0.21269 1.70758,-0.67922 0.23264,-0.18523 0.47003,-0.33678 0.52754,-0.33678 0.15478,0 1.15068,-1.23624 1.4125,-1.75339 0.12476,-0.24643 0.27227,-0.66686 0.32779,-0.93429 0.0555,-0.26743 0.22966,-0.87919 0.38699,-1.35947 0.15733,-0.48027 0.28605,-0.9645 0.28605,-1.07606 0,-0.11155 0.0355,-0.29034 0.0788,-0.39731 0.0433,-0.10696 0.10183,-0.30171 0.12998,-0.43276 0.035,-0.16311 0.12821,-0.26513 0.2954,-0.32341 0.13433,-0.0468 0.26514,-0.13963 0.29069,-0.20623 0.0768,-0.20017 0.34376,-0.13814 0.7542,0.17525 0.21345,0.16299 0.45405,0.29634 0.53467,0.29634 0.0806,0 0.21114,0.0584 0.29005,0.12983 0.10355,0.0937 0.36446,0.13525 0.93799,0.14929 0.68773,0.0169 0.83643,0.0478 1.10606,0.23 0.32225,0.21779 0.57278,0.74979 0.62325,1.32349 0.0129,0.14646 0.0674,0.34835 0.12103,0.44865 0.0715,0.13363 0.0731,0.25652 0.006,0.4599 -0.0622,0.1886 -0.0661,0.45736 -0.0121,0.83869 0.0437,0.30864 0.0584,0.6416 0.0327,0.7399 -0.0472,0.18067 0.15767,1.26601 0.32737,1.73391 0.45104,1.24367 0.57549,1.64137 0.57753,1.84571 0.001,0.13037 0.0627,0.35377 0.13652,0.49646 0.12316,0.23818 0.12192,0.32436 -0.0152,1.05254 l -0.14939,0.79313 -0.52092,0.46019 c -0.2865,0.2531 -0.66064,0.51856 -0.83143,0.58992 -0.17078,0.0714 -0.31052,0.16461 -0.31052,0.20723 0,0.15503 -0.73893,0.33951 -1.54915,0.38676 -0.53753,0.0314 -0.89432,0.0938 -1.01367,0.17739 -0.41077,0.28771 -0.69603,0.0253 -0.82343,-0.75744 -0.0692,-0.42547 -0.13565,-0.70645 -0.36079,-1.52655 -0.25639,-0.93392 -1.03381,-2.24367 -1.33176,-2.24367 -0.11137,0 -0.22824,0.12 -0.35045,0.35983 -0.18589,0.36482 -0.61771,1.07985 -1.16325,1.92617 -0.88152,1.36755 -2.12402,2.64843 -2.66334,2.74563 -0.17794,0.0321 -0.36844,0.0725 -0.42334,0.0897 -0.0549,0.0173 -0.17602,-10e-4 -0.26915,-0.0413 z m -59.243008,-0.0849 c -0.126687,-0.0377 -0.537562,-0.0718 -0.913054,-0.0758 -0.46039,-0.005 -0.77138,-0.0533 -0.954992,-0.1487 -0.163844,-0.0851 -0.431613,-0.1343 -0.672368,-0.12359 -0.220049,0.01 -0.477548,-0.0237 -0.57222,-0.0743 -0.09467,-0.0507 -0.409932,-0.12615 -0.700578,-0.16773 -0.779854,-0.11158 -1.421308,-0.31511 -1.63971,-0.52029 -0.130959,-0.12303 -0.254624,-0.16512 -0.384973,-0.13104 -0.301512,0.0788 -1.045018,-0.17867 -1.971004,-0.68267 -1.357029,-0.73862 -1.755487,-1.00419 -2.192557,-1.46136 -0.225755,-0.23613 -0.55913,-0.50518 -0.740834,-0.59787 -0.181702,-0.0927 -0.330843,-0.19635 -0.331424,-0.23033 -5.92e-4,-0.034 -0.16121,-0.23322 -0.356956,-0.44277 -0.482006,-0.516 -0.883917,-1.12375 -1.130348,-1.70924 -0.261386,-0.62103 -0.265397,-0.89628 -0.01447,-0.99321 0.104775,-0.0405 0.281402,-0.17132 0.392506,-0.29078 0.130387,-0.14018 0.333799,-0.23695 0.573737,-0.27293 0.322494,-0.0484 0.396668,-0.029 0.559994,0.14625 0.103544,0.1111 0.331138,0.3106 0.505763,0.44334 0.174625,0.13273 0.3175,0.2949 0.3175,0.36038 0,0.0655 0.104605,0.15881 0.232458,0.20742 0.127852,0.0486 0.353909,0.18102 0.50235,0.29424 0.148442,0.11322 0.297415,0.20586 0.331051,0.20586 0.03364,0 0.198103,0.10474 0.365482,0.23275 0.629505,0.48147 2.316078,1.06652 3.52113,1.22145 0.372824,0.0479 0.982662,0.16419 1.355195,0.25834 0.372534,0.0942 0.905934,0.18752 1.185334,0.20747 1.546909,0.11045 2.889095,0.15852 2.963333,0.10612 0.04657,-0.0329 0.237067,-0.0802 0.423333,-0.10519 1.066185,-0.14303 1.817246,-0.33222 2.380161,-0.59954 0.345448,-0.16406 0.651021,-0.35804 0.67905,-0.43109 0.02803,-0.073 0.219396,-0.23151 0.425259,-0.35215 0.987671,-0.57882 1.803031,-1.93227 1.805922,-2.99773 6.77e-4,-0.25846 0.04836,-0.51698 0.105907,-0.57453 0.06735,-0.0674 0.113253,-0.44297 0.128825,-1.0541 0.01331,-0.52221 0.02834,-1.04472 0.03341,-1.16113 0.0051,-0.11642 -0.03623,-0.42122 -0.09178,-0.67734 -0.05554,-0.25611 -0.146234,-0.77842 -0.201537,-1.16068 -0.0553,-0.38227 -0.148175,-0.74231 -0.206383,-0.8001 -0.05821,-0.0578 -0.106046,-0.27844 -0.106306,-0.49032 -2.54e-4,-0.21188 -0.03749,-0.51858 -0.08274,-0.68156 -0.04525,-0.16299 -0.09688,-0.50704 -0.114733,-0.76457 -0.01786,-0.25753 -0.09492,-0.58901 -0.17126,-0.73663 -0.07634,-0.14762 -0.139045,-0.33696 -0.139352,-0.42077 -3.38e-4,-0.0838 -0.07694,-0.26667 -0.170291,-0.40637 -0.142266,-0.21289 -0.278738,-0.59943 -0.555645,-1.57378 -0.03301,-0.11614 -0.167797,-0.12826 -0.989359,-0.089 -0.870849,0.0416 -1.257046,0.0484 -1.967147,0.0344 -0.1397,-0.003 -0.652232,-0.0107 -1.13896,-0.0177 -0.495526,-0.007 -0.933973,-0.0534 -0.996337,-0.10513 -0.06846,-0.0568 -0.280901,-0.0724 -0.551344,-0.0403 -0.517076,0.0612 -2.059951,-0.21536 -2.520359,-0.45184 -0.162983,-0.0837 -0.467783,-0.21287 -0.677333,-0.28702 -0.455146,-0.16105 -1.983696,-1.153109 -2.199599,-1.427585 -0.115443,-0.146762 -0.149652,-0.329434 -0.140641,-0.750997 0.0065,-0.306384 -0.03345,-0.648572 -0.08889,-0.760417 -0.214263,-0.432271 -0.28401,-1.062566 -0.152431,-1.377479 0.06801,-0.16278 0.161318,-0.319237 0.207345,-0.347683 0.04603,-0.02845 0.143342,-0.177441 0.216259,-0.331102 0.08362,-0.176222 0.264219,-0.345052 0.489099,-0.457233 0.487393,-0.243134 1.418559,-0.38502 1.820843,-0.27745 0.172524,0.04613 0.746959,0.124489 1.276522,0.174124 0.529563,0.04964 1.026729,0.124438 1.104813,0.166228 0.07809,0.04179 0.387757,0.10198 0.688159,0.133756 0.300403,0.03178 0.660487,0.116165 0.800187,0.187529 0.19145,0.0978 0.587599,0.134288 1.608666,0.148174 1.29162,0.01756 1.452663,0.04265 2.050281,0.319419 0.136859,0.06338 0.223215,0.05734 0.319214,-0.02233 0.137531,-0.114141 0.771156,-0.05791 2.358898,0.209328 0.421101,0.07088 0.758074,0.08496 0.920223,0.03846 0.185139,-0.0531 0.327418,-0.03635 0.514909,0.0606 0.189903,0.0982 0.373721,0.119002 0.688444,0.0779 0.476817,-0.06227 1.51657,-0.139117 2.038031,-0.150621 0.431077,-0.0095 0.835588,0.0455 1.29312,0.175862 0.198983,0.05669 0.400578,0.07911 0.447989,0.0498 0.07849,-0.04851 0.683641,-0.06821 4.363008,-0.142025 0.839593,-0.01685 1.233771,-0.0574 1.329437,-0.136773 0.0795,-0.06596 0.210527,-0.08917 0.315451,-0.05587 0.110081,0.03494 0.234401,0.0086 0.321563,-0.06822 0.1649,-0.145269 1.06464,-0.1774 1.308783,-0.04674 0.121485,0.06502 0.144034,0.140603 0.100742,0.337711 -0.04682,0.213176 -0.02654,0.261591 0.126354,0.301573 0.100201,0.0262 0.163806,0.09538 0.141396,0.153781 -0.0224,0.05838 0.01799,0.189992 0.08976,0.292461 0.166537,0.237764 0.116836,0.933949 -0.09891,1.385476 -0.169776,0.355321 -0.683007,0.730375 -1.065741,0.778813 -0.131536,0.01665 -0.346061,0.08421 -0.476722,0.150131 -0.130661,0.06593 -0.447938,0.143515 -0.705061,0.172422 -0.257124,0.02891 -0.752424,0.151027 -1.100667,0.271367 -0.911003,0.31483 -1.632377,0.46635 -2.453504,0.51533 -0.395816,0.0236 -0.853016,0.0785 -1.016,0.12203 -0.162983,0.0435 -0.750492,0.11914 -1.305574,0.16807 -1.396279,0.12307 -1.547094,0.23126 -1.080414,0.77505 0.131274,0.15296 0.486034,0.65911 0.788355,1.12478 0.791451,1.21907 0.835633,1.29421 0.835633,1.42127 0,0.0632 0.11324,0.26456 0.251645,0.44748 0.138405,0.18292 0.252705,0.3637 0.254,0.40173 0.0013,0.038 0.09864,0.19538 0.216322,0.34967 0.125926,0.1651 0.263511,0.51987 0.334371,0.86219 0.06622,0.31991 0.195817,0.79132 0.287989,1.04758 0.09217,0.25625 0.225386,0.7706 0.296032,1.143 0.07064,0.37239 0.172132,0.86758 0.225527,1.10041 0.09763,0.42574 0.121366,3.71925 0.02789,3.87049 -0.02619,0.0424 -0.11692,0.38901 -0.201618,0.77028 -0.242071,1.08971 -0.407171,1.59735 -0.581316,1.78739 -0.08862,0.0967 -0.279372,0.41251 -0.4239,0.70177 -0.289486,0.57938 -0.595851,0.91755 -1.413118,1.55982 -0.299103,0.23505 -0.543824,0.45842 -0.543824,0.49637 0,0.12144 -0.815968,0.66009 -1.28349,0.84728 -0.248697,0.0996 -0.737926,0.31809 -1.087176,0.48557 -0.34925,0.16749 -0.80645,0.33219 -1.016,0.366 -0.20955,0.0338 -0.613083,0.15982 -0.896738,0.28002 -0.411553,0.17441 -0.569433,0.20316 -0.781542,0.14233 -0.163977,-0.047 -0.382377,-0.0441 -0.570099,0.008 -0.167362,0.0462 -0.634819,0.0761 -1.038791,0.0664 -0.813077,-0.0195 -3.709423,0.0739 -3.909497,0.12609 -0.06985,0.0182 -0.230654,0.002 -0.357342,-0.0354 z"
         id="path3770"
         inkscape:connector-curvature="0" />
    </g>
  </g>
</svg>
